<svg width="1600" height="1000" viewBox="0 0 1600 1000" fill="none" xmlns="http://www.w3.org/2000/svg">
  <rect width="1600" height="1000" fill="#0F1216"/>
  <rect x="64" y="64" width="1472" height="872" rx="48" fill="url(#paint0_linear)"/>
  <rect x="154" y="154" width="520" height="692" rx="40" fill="#F4F1EA" fill-opacity="0.07"/>
  <rect x="732" y="154" width="714" height="310" rx="40" fill="#151A1F"/>
  <rect x="732" y="536" width="714" height="310" rx="40" fill="#F4F1EA" fill-opacity="0.07"/>
  <rect x="214" y="234" width="224" height="20" rx="10" fill="#D6A04A"/>
  <rect x="214" y="284" width="314" height="20" rx="10" fill="#F4F1EA" fill-opacity="0.42"/>
  <rect x="214" y="334" width="258" height="20" rx="10" fill="#F4F1EA" fill-opacity="0.24"/>
  <rect x="214" y="640" width="280" height="86" rx="43" fill="#D6A04A"/>
  <circle cx="546" cy="564" r="84" fill="#D6A04A" fill-opacity="0.2"/>
  <circle cx="1194" cy="312" r="112" fill="#8CC0A7" fill-opacity="0.18"/>
  <circle cx="1310" cy="690" r="74" fill="#D6A04A" fill-opacity="0.2"/>
  <path d="M810 320H1130" stroke="#F4F1EA" stroke-opacity="0.55" stroke-width="16" stroke-linecap="round"/>
  <path d="M810 370H1264" stroke="#F4F1EA" stroke-opacity="0.22" stroke-width="16" stroke-linecap="round"/>
  <path d="M810 662H1170" stroke="#F4F1EA" stroke-opacity="0.45" stroke-width="16" stroke-linecap="round"/>
  <path d="M810 712H1074" stroke="#F4F1EA" stroke-opacity="0.22" stroke-width="16" stroke-linecap="round"/>
  <text x="214" y="510" fill="#F4F1EA" font-family="Poppins, Arial, sans-serif" font-size="72" font-weight="700">Mockup visivo</text>
  <text x="214" y="574" fill="#F4F1EA" fill-opacity="0.7" font-family="Poppins, Arial, sans-serif" font-size="32" font-weight="500">Placeholder generato per blocchi</text>
  <text x="214" y="618" fill="#F4F1EA" fill-opacity="0.7" font-family="Poppins, Arial, sans-serif" font-size="32" font-weight="500">che richiedono foto ancora da sostituire.</text>
  <defs>
    <linearGradient id="paint0_linear" x1="132" y1="104" x2="1468" y2="934" gradientUnits="userSpaceOnUse">
      <stop stop-color="#1D232B"/>
      <stop offset="0.5" stop-color="#171D24"/>
      <stop offset="1" stop-color="#293C35"/>
    </linearGradient>
  </defs>
</svg>
