<?xml version="1.0" encoding="UTF-8"?>
<svg id="Livello_2" data-name="Livello 2" xmlns="http://www.w3.org/2000/svg" viewBox="0 0 201.96 201.96">
  <defs>
    <style>
      .cls-1 {
        fill: #263955;
      }

      .cls-2 {
        fill: #c6c6c6;
      }

      .cls-3 {
        fill: #fff;
      }
    </style>
  </defs>
  <g id="Livello_1-2" data-name="Livello 1">
    <rect class="cls-1" width="201.96" height="201.96"/>
    <path class="cls-3" d="M48.02,95.81V31.19h27.28c.63,0,1.47.02,2.54.07,1.06.04,2.01.14,2.85.29,3.86.6,7.02,1.87,9.49,3.81,2.47,1.94,4.28,4.39,5.45,7.34,1.17,2.95,1.75,6.23,1.75,9.85,0,5.41-1.34,10.04-4.04,13.89-2.69,3.84-6.91,6.21-12.65,7.11l-5.39.36h-15.08v21.9h-12.21ZM60.22,62.51h14.54c.63,0,1.32-.03,2.06-.09.75-.06,1.44-.18,2.06-.36,1.65-.45,2.92-1.2,3.81-2.27.9-1.06,1.52-2.24,1.86-3.54.34-1.3.52-2.54.52-3.7s-.18-2.4-.52-3.7c-.34-1.3-.97-2.48-1.86-3.54-.9-1.06-2.17-1.82-3.81-2.27-.63-.18-1.32-.3-2.06-.36-.75-.06-1.44-.09-2.06-.09h-14.54v19.93ZM84.45,95.81l-12.74-26.3,12.56-2.42,14,28.72h-13.82Z"/>
    <path class="cls-3" d="M119.53,95.81l-19.74-64.62h12.56l16.16,53.13,16.43-53.13h12.56l-19.74,64.62h-18.22Z"/>
    <path class="cls-3" d="M59.76,106.15h12.21l-17.23,64.62h-12.21l17.23-64.62Z"/>
    <path class="cls-2" d="M83.75,170.77v-64.62h12.21v53.22h27.82v11.4h-40.03Z"/>
    <path class="cls-2" d="M132.48,170.77v-53.22h-20.37v-11.4h52.95v11.4h-20.37v53.22h-12.21Z"/>
  </g>
</svg>