<?xml version="1.0" encoding="UTF-8"?>
<svg id="Livello_2" data-name="Livello 2" xmlns="http://www.w3.org/2000/svg" viewBox="0 0 198.3 80.32">
  <defs>
    <style>
      .cls-1 {
        fill: #263955;
      }

      .cls-2 {
        fill: #283854;
      }

      .cls-3 {
        fill: #ad4b38;
      }
    </style>
  </defs>
  <g id="Livello_1-2" data-name="Livello 1">
    <path class="cls-3" d="M0,56.25V0h23.75c.55,0,1.28.02,2.21.06.92.04,1.75.12,2.48.25,3.36.52,6.11,1.63,8.26,3.32,2.15,1.69,3.73,3.82,4.74,6.39,1.02,2.57,1.52,5.42,1.52,8.58,0,4.71-1.17,8.74-3.52,12.09s-6.02,5.41-11.01,6.19l-4.69.31h-13.13v19.06H0ZM10.63,27.27h12.66c.55,0,1.15-.03,1.8-.08.65-.05,1.25-.16,1.8-.31,1.43-.39,2.54-1.05,3.32-1.97.78-.92,1.32-1.95,1.62-3.09.3-1.13.45-2.21.45-3.22s-.15-2.09-.45-3.22c-.3-1.13-.84-2.16-1.62-3.09-.78-.92-1.89-1.58-3.32-1.97-.55-.16-1.15-.26-1.8-.31-.65-.05-1.25-.08-1.8-.08h-12.66v17.35ZM31.72,56.25l-11.09-22.89,10.94-2.11,12.19,25h-12.03Z"/>
    <path class="cls-3" d="M62.25,56.25L45.07,0h10.94l14.06,46.25L84.37,0h10.94l-17.19,56.25h-15.86Z"/>
    <path class="cls-3" d="M106.63,0h10.63l-15,56.25h-10.63L106.63,0Z"/>
    <path class="cls-1" d="M127.51,56.25V0h10.63v46.33h24.22v9.92h-34.85Z"/>
    <path class="cls-1" d="M169.94,56.25V9.92h-17.74V0h46.1v9.92h-17.74v46.33h-10.63Z"/>
    <g>
      <path class="cls-2" d="M15.36,70.47h-3.46v-1.95h9.09v1.95h-3.46v9.69h-2.18v-9.69Z"/>
      <path class="cls-2" d="M22.29,68.52h7.79v1.91h-5.62v2.96h5.12v1.71h-5.12v3.14h5.78v1.91h-7.96v-11.63Z"/>
      <path class="cls-2" d="M31.62,68.52h2.29l5.09,8.16h.05v-8.16h2.19v11.63h-2.39l-5-8.03h-.05v8.03h-2.18v-11.63Z"/>
      <path class="cls-2" d="M43.1,68.52h4.22c3.64,0,5.5,2.09,5.5,5.82s-1.86,5.82-5.5,5.82h-4.22v-11.63ZM50.6,74.34c0-2.71-.95-3.91-3.49-3.91h-1.83v7.81h1.83c2.54,0,3.49-1.2,3.49-3.91Z"/>
      <path class="cls-2" d="M54.37,68.52h7.79v1.91h-5.62v2.96h5.12v1.71h-5.12v3.14h5.78v1.91h-7.96v-11.63Z"/>
      <path class="cls-2" d="M67.26,76.88c0-1.65,1.08-2.58,2.43-3.32-.72-.86-1.18-1.66-1.18-2.58,0-1.31.95-2.61,3.12-2.61,2.06,0,3.08,1.2,3.08,2.63,0,1.13-.65,2.21-2.26,2.99l2.28,2.51c.32-.68.5-1.51.5-2.49h1.88c0,1.68-.4,2.98-1.03,3.96l1.99,2.19h-2.38l-.82-.9c-.98.73-2.18,1.06-3.36,1.06-2.48,0-4.25-1.4-4.25-3.44ZM71.72,78.58c.68,0,1.35-.23,1.91-.66l-2.86-3.14c-1,.58-1.31,1.3-1.31,1.91,0,1.05.88,1.9,2.26,1.9ZM71.34,72.74c1.16-.63,1.5-1.18,1.5-1.74,0-.71-.52-1.15-1.23-1.15-.78,0-1.25.5-1.25,1.11,0,.53.35,1.05.98,1.78Z"/>
      <path class="cls-2" d="M82.94,78.24l6.45-7.81h-6.27v-1.91h8.69v1.91l-6.46,7.81h6.53v1.91h-8.94v-1.91Z"/>
      <path class="cls-2" d="M97.05,68.52h2.79l4.27,11.63h-2.31l-.83-2.38h-5.07l-.83,2.38h-2.29l4.27-11.63ZM100.41,76.15l-1.89-5.38h-.13l-1.89,5.38h3.92Z"/>
      <path class="cls-2" d="M105.31,68.52h2.29l5.09,8.16h.05v-8.16h2.19v11.63h-2.39l-5-8.03h-.05v8.03h-2.18v-11.63Z"/>
      <path class="cls-2" d="M116.48,78.24l6.45-7.81h-6.27v-1.91h8.69v1.91l-6.46,7.81h6.53v1.91h-8.94v-1.91Z"/>
      <path class="cls-2" d="M130.59,68.52h2.79l4.27,11.63h-2.31l-.83-2.38h-5.07l-.83,2.38h-2.29l4.27-11.63ZM133.94,76.15l-1.89-5.38h-.13l-1.89,5.38h3.92Z"/>
      <path class="cls-2" d="M138.85,68.52h4.57c2.99,0,4.35,1.55,4.35,3.81,0,1.68-.77,2.98-2.43,3.51l2.53,4.32h-2.18l-2.31-4.04h-2.36v4.04h-2.18v-11.63ZM145.53,72.33c0-1.18-.7-1.9-2.19-1.9h-2.31v3.77h2.31c1.5,0,2.19-.71,2.19-1.88Z"/>
      <path class="cls-2" d="M149.25,68.52h2.18v11.63h-2.18v-11.63Z"/>
      <path class="cls-2" d="M153.29,68.52h7.79v1.91h-5.62v2.96h5.12v1.71h-5.12v3.14h5.78v1.91h-7.96v-11.63Z"/>
      <path class="cls-2" d="M162.61,68.52h4.57c2.99,0,4.35,1.55,4.35,3.81,0,1.68-.77,2.98-2.43,3.51l2.53,4.32h-2.18l-2.31-4.04h-2.36v4.04h-2.18v-11.63ZM169.29,72.33c0-1.18-.7-1.9-2.19-1.9h-2.31v3.77h2.31c1.5,0,2.19-.71,2.19-1.88Z"/>
      <path class="cls-2" d="M173.02,68.52h7.79v1.91h-5.62v2.96h5.12v1.71h-5.12v3.14h5.78v1.91h-7.96v-11.63Z"/>
    </g>
  </g>
</svg>